<svg width="24" height="24" viewBox="0 0 24 24" fill="none" xmlns="http://www.w3.org/2000/svg">
<path d="M21.1136 5.4996H17.6439V5.14313C17.6439 3.55057 16.3513 2.25806 14.7588 2.25806H9.24058C7.64738 2.25806 6.35551 3.55057 6.35551 5.14313V5.4996H2.88508C1.29187 5.4996 0 6.79148 0 8.38468V18.8569C0 20.4494 1.29187 21.7419 2.88508 21.7419H21.1149C22.7081 21.7419 24 20.4494 24 18.8569V8.38468C23.9987 6.79083 22.7068 5.4996 21.1136 5.4996ZM11.9987 18.7492C8.99311 18.7492 6.54913 16.3052 6.54913 13.2996C6.54913 10.2946 8.99311 7.84998 11.9987 7.84998C15.0043 7.84998 17.4483 10.294 17.4483 13.2996C17.4483 16.3052 15.0037 18.7492 11.9987 18.7492ZM14.8838 13.2996C14.8838 14.8889 13.5887 16.1846 11.9987 16.1846C10.4087 16.1846 9.11364 14.8889 9.11364 13.2996C9.11364 11.7096 10.4087 10.4145 11.9987 10.4145C13.5887 10.4145 14.8838 11.7096 14.8838 13.2996Z" fill="#F9427A"/>
</svg>
