<svg width="24" height="24" viewBox="0 0 24 24" fill="none" xmlns="http://www.w3.org/2000/svg">
<path fill-rule="evenodd" clip-rule="evenodd" d="M9 22H15C20 22 22 20 22 15V14.65C21.8269 14.6501 21.6529 14.5906 21.5113 14.469L19.8813 13.0689C19.3823 12.6404 18.5376 12.6404 18.0387 13.0689L13.8787 16.6389C12.8176 17.5501 11.1423 17.5503 10.0813 16.6389L10.0749 16.6334L9.74841 16.3465C9.29998 15.9638 8.53365 15.9168 8.01781 16.2628L3.08803 19.5727C3.06517 19.588 3.04177 19.602 3.01794 19.6145C4.07265 21.2772 5.99425 22 9 22ZM2.39839 18.229C2.12744 17.3331 2 16.2621 2 15V9C2 4 4 2 9 2H15C20 2 22 4 22 9V12.9114L20.8586 11.9311C19.7977 11.0197 18.1223 11.0199 17.0613 11.9311L12.9013 15.5011C12.4033 15.9288 11.5607 15.9296 11.0615 15.5035L10.7351 15.2166L10.7287 15.2111C9.75676 14.3761 8.24499 14.3041 7.18191 15.0173L2.39839 18.229ZM9 10.38C10.3144 10.38 11.38 9.31444 11.38 8C11.38 6.68556 10.3144 5.62 9 5.62C7.68556 5.62 6.62 6.68556 6.62 8C6.62 9.31444 7.68556 10.38 9 10.38Z" fill="#F9427A"/>
</svg>
